<svg xmlns="http://www.w3.org/2000/svg" viewBox="0 0 204.8 204.8">
  <defs/>
  <path fill="#F00000" d="M201.39 102.4c0-54.67-44.32-98.99-98.99-98.99S3.41 47.73 3.41 102.4H201.4z"/>
  <path d="M204.8 105.81H0v-3.41C0 45.94 45.94 0 102.4 0s102.4 45.94 102.4 102.4v3.41zM6.89 99H197.9c-1.8-51.13-43.95-92.16-95.51-92.16S8.69 47.86 6.89 98.99z" />
  <path fill="#fff" d="M201.39 102.4c0 54.67-44.32 98.99-98.99 98.99S3.41 157.07 3.41 102.4H201.4z"/>
  <path d="M102.4 204.8C45.94 204.8 0 158.86 0 102.4a3.41 3.41 0 013.41-3.41H201.4a3.41 3.41 0 013.4 3.41c.01 56.46-45.93 102.4-102.39 102.4zM6.89 105.81c1.8 51.13 43.95 92.16 95.51 92.16s93.71-41.03 95.51-92.16H6.9z"/>
  <circle cx="102.4" cy="102.4" r="37.55" />
  <path d="M102.4 143.36a41 41 0 01-40.96-40.96c0-22.59 18.37-40.96 40.96-40.96s40.96 18.37 40.96 40.96a41 41 0 01-40.96 40.96zm0-75.1c-18.82 0-34.13 15.32-34.13 34.14s15.3 34.13 34.13 34.13 34.13-15.3 34.13-34.13-15.3-34.13-34.13-34.13z" />
  <circle cx="102.4" cy="102.4" r="23.89" fill="#fff"/>
  <path d="M102.4 129.7c-15.06 0-27.3-12.24-27.3-27.3s12.24-27.3 27.3-27.3 27.3 12.24 27.3 27.3-12.24 27.3-27.3 27.3zm0-47.78c-11.3 0-20.48 9.19-20.48 20.48s9.19 20.48 20.48 20.48 20.48-9.19 20.48-20.48-9.19-20.48-20.48-20.48z" fill="#fff"/>
</svg>
